<mxfile host="app.diagrams.net" agent="Mozilla/5.0 (Windows NT 10.0; Win64; x64) AppleWebKit/537.36 (KHTML, like Gecko) Chrome/127.0.0.0 Safari/537.36" version="24.7.8">
  <diagram name="Page-1" id="oeZqWXinHDKg7icZBTzm">
    <mxGraphModel dx="2120" dy="1171" grid="1" gridSize="10" guides="1" tooltips="1" connect="1" arrows="1" fold="1" page="0" pageScale="1" pageWidth="850" pageHeight="1100" math="0" shadow="0">
      <root>
        <mxCell id="0" />
        <mxCell id="1" parent="0" />
        <mxCell id="S6WGJwwI-2qXbm39gYA7-1" value="" style="rounded=0;whiteSpace=wrap;html=1;" vertex="1" parent="1">
          <mxGeometry x="360" y="-30" width="400" height="2950" as="geometry" />
        </mxCell>
        <mxCell id="S6WGJwwI-2qXbm39gYA7-2" value="Login" style="ellipse;whiteSpace=wrap;html=1;" vertex="1" parent="1">
          <mxGeometry x="500" y="90" width="120" height="80" as="geometry" />
        </mxCell>
        <mxCell id="S6WGJwwI-2qXbm39gYA7-11" value="Manage Profile" style="ellipse;whiteSpace=wrap;html=1;" vertex="1" parent="1">
          <mxGeometry x="500.98" y="190" width="120" height="80" as="geometry" />
        </mxCell>
        <mxCell id="S6WGJwwI-2qXbm39gYA7-21" value="Browse Projects" style="ellipse;whiteSpace=wrap;html=1;" vertex="1" parent="1">
          <mxGeometry x="500.98" y="300" width="120" height="80" as="geometry" />
        </mxCell>
        <mxCell id="S6WGJwwI-2qXbm39gYA7-22" value="Filter Projects" style="ellipse;whiteSpace=wrap;html=1;" vertex="1" parent="1">
          <mxGeometry x="500.98" y="400" width="120" height="80" as="geometry" />
        </mxCell>
        <mxCell id="S6WGJwwI-2qXbm39gYA7-24" value="&amp;lt;&amp;lt;extend&amp;gt;&amp;gt;" style="html=1;verticalAlign=bottom;labelBackgroundColor=none;endArrow=open;endFill=0;dashed=1;rounded=0;exitX=0;exitY=0.5;exitDx=0;exitDy=0;" edge="1" parent="1" source="S6WGJwwI-2qXbm39gYA7-22">
          <mxGeometry width="160" relative="1" as="geometry">
            <mxPoint x="340.98" y="339.52" as="sourcePoint" />
            <mxPoint x="500.98" y="339.52" as="targetPoint" />
            <Array as="points">
              <mxPoint x="460.98" y="440" />
              <mxPoint x="460.98" y="390" />
              <mxPoint x="460.98" y="340" />
            </Array>
          </mxGeometry>
        </mxCell>
        <mxCell id="S6WGJwwI-2qXbm39gYA7-25" value="Bid On Projects" style="ellipse;whiteSpace=wrap;html=1;" vertex="1" parent="1">
          <mxGeometry x="500.98" y="500" width="120" height="80" as="geometry" />
        </mxCell>
        <mxCell id="S6WGJwwI-2qXbm39gYA7-27" value="Manage Bids" style="ellipse;whiteSpace=wrap;html=1;" vertex="1" parent="1">
          <mxGeometry x="500.98" y="600" width="120" height="80" as="geometry" />
        </mxCell>
        <mxCell id="S6WGJwwI-2qXbm39gYA7-29" value="Manage Ongoing Projects" style="ellipse;whiteSpace=wrap;html=1;" vertex="1" parent="1">
          <mxGeometry x="500.98" y="710" width="120" height="80" as="geometry" />
        </mxCell>
        <mxCell id="S6WGJwwI-2qXbm39gYA7-49" value="View Completed Projects" style="ellipse;whiteSpace=wrap;html=1;" vertex="1" parent="1">
          <mxGeometry x="501.22" y="820" width="120" height="80" as="geometry" />
        </mxCell>
        <mxCell id="S6WGJwwI-2qXbm39gYA7-50" value="Submit Completed Projects" style="ellipse;whiteSpace=wrap;html=1;" vertex="1" parent="1">
          <mxGeometry x="501.22" y="930" width="120" height="80" as="geometry" />
        </mxCell>
        <mxCell id="S6WGJwwI-2qXbm39gYA7-51" value="Receive Payment" style="ellipse;whiteSpace=wrap;html=1;" vertex="1" parent="1">
          <mxGeometry x="501.22" y="1040" width="120" height="80" as="geometry" />
        </mxCell>
        <mxCell id="S6WGJwwI-2qXbm39gYA7-52" value="View Ratings and Feedback" style="ellipse;whiteSpace=wrap;html=1;" vertex="1" parent="1">
          <mxGeometry x="501.22" y="1150" width="120" height="80" as="geometry" />
        </mxCell>
        <mxCell id="S6WGJwwI-2qXbm39gYA7-53" value="Update Portfolio" style="ellipse;whiteSpace=wrap;html=1;" vertex="1" parent="1">
          <mxGeometry x="501.22" y="1260" width="120" height="80" as="geometry" />
        </mxCell>
        <mxCell id="S6WGJwwI-2qXbm39gYA7-54" value="&amp;lt;&amp;lt;include&amp;gt;&amp;gt;" style="html=1;verticalAlign=bottom;labelBackgroundColor=none;endArrow=open;endFill=0;dashed=1;rounded=0;exitX=1;exitY=0.5;exitDx=0;exitDy=0;entryX=1;entryY=0.5;entryDx=0;entryDy=0;" edge="1" parent="1" source="S6WGJwwI-2qXbm39gYA7-25" target="S6WGJwwI-2qXbm39gYA7-21">
          <mxGeometry width="160" relative="1" as="geometry">
            <mxPoint x="770.98" y="370" as="sourcePoint" />
            <mxPoint x="930.98" y="370" as="targetPoint" />
            <Array as="points">
              <mxPoint x="660.98" y="540" />
              <mxPoint x="660.98" y="450" />
              <mxPoint x="660.98" y="340" />
            </Array>
          </mxGeometry>
        </mxCell>
        <mxCell id="S6WGJwwI-2qXbm39gYA7-55" value="&amp;lt;&amp;lt;extend&amp;gt;&amp;gt;" style="html=1;verticalAlign=bottom;labelBackgroundColor=none;endArrow=open;endFill=0;dashed=1;rounded=0;entryX=0;entryY=0.5;entryDx=0;entryDy=0;exitX=0;exitY=0.5;exitDx=0;exitDy=0;" edge="1" parent="1" source="S6WGJwwI-2qXbm39gYA7-53" target="S6WGJwwI-2qXbm39gYA7-11">
          <mxGeometry width="160" relative="1" as="geometry">
            <mxPoint x="160" y="940" as="sourcePoint" />
            <mxPoint x="210" y="520" as="targetPoint" />
            <Array as="points">
              <mxPoint x="420" y="1300" />
              <mxPoint x="420" y="770" />
              <mxPoint x="420" y="230" />
            </Array>
          </mxGeometry>
        </mxCell>
        <mxCell id="S6WGJwwI-2qXbm39gYA7-56" value="Update Projects" style="ellipse;whiteSpace=wrap;html=1;" vertex="1" parent="1">
          <mxGeometry x="501.22" y="1370" width="120" height="80" as="geometry" />
        </mxCell>
        <mxCell id="S6WGJwwI-2qXbm39gYA7-57" value="Manage Posted Projects" style="ellipse;whiteSpace=wrap;html=1;" vertex="1" parent="1">
          <mxGeometry x="501.22" y="1480" width="120" height="80" as="geometry" />
        </mxCell>
        <mxCell id="S6WGJwwI-2qXbm39gYA7-58" value="&amp;lt;&amp;lt;extend&amp;gt;&amp;gt;" style="html=1;verticalAlign=bottom;labelBackgroundColor=none;endArrow=open;endFill=0;dashed=1;rounded=0;entryX=0;entryY=0.5;entryDx=0;entryDy=0;exitX=0;exitY=0.5;exitDx=0;exitDy=0;" edge="1" parent="1" source="S6WGJwwI-2qXbm39gYA7-57" target="S6WGJwwI-2qXbm39gYA7-56">
          <mxGeometry width="160" relative="1" as="geometry">
            <mxPoint x="501" y="1510" as="sourcePoint" />
            <mxPoint x="630" y="1510" as="targetPoint" />
            <Array as="points">
              <mxPoint x="480" y="1520" />
              <mxPoint x="480" y="1470" />
              <mxPoint x="480" y="1410" />
            </Array>
          </mxGeometry>
        </mxCell>
        <mxCell id="S6WGJwwI-2qXbm39gYA7-59" value="Browse Freelancers" style="ellipse;whiteSpace=wrap;html=1;" vertex="1" parent="1">
          <mxGeometry x="501.22" y="1590" width="120" height="80" as="geometry" />
        </mxCell>
        <mxCell id="S6WGJwwI-2qXbm39gYA7-60" value="Filter Freelancers" style="ellipse;whiteSpace=wrap;html=1;" vertex="1" parent="1">
          <mxGeometry x="500" y="1700" width="120" height="80" as="geometry" />
        </mxCell>
        <mxCell id="S6WGJwwI-2qXbm39gYA7-62" value="&amp;lt;&amp;lt;extend&amp;gt;&amp;gt;" style="html=1;verticalAlign=bottom;labelBackgroundColor=none;endArrow=open;endFill=0;dashed=1;rounded=0;entryX=0;entryY=0.5;entryDx=0;entryDy=0;exitX=0;exitY=0.5;exitDx=0;exitDy=0;" edge="1" parent="1">
          <mxGeometry width="160" relative="1" as="geometry">
            <mxPoint x="500" y="1740" as="sourcePoint" />
            <mxPoint x="500" y="1630" as="targetPoint" />
            <Array as="points">
              <mxPoint x="479" y="1740" />
              <mxPoint x="479" y="1690" />
              <mxPoint x="479" y="1630" />
            </Array>
          </mxGeometry>
        </mxCell>
        <mxCell id="S6WGJwwI-2qXbm39gYA7-63" value="Select Freelancers" style="ellipse;whiteSpace=wrap;html=1;" vertex="1" parent="1">
          <mxGeometry x="500" y="1810" width="120" height="80" as="geometry" />
        </mxCell>
        <mxCell id="S6WGJwwI-2qXbm39gYA7-65" value="&amp;lt;&amp;lt;include&amp;gt;&amp;gt;" style="html=1;verticalAlign=bottom;labelBackgroundColor=none;endArrow=open;endFill=0;dashed=1;rounded=0;exitX=1;exitY=0.5;exitDx=0;exitDy=0;entryX=1;entryY=0.5;entryDx=0;entryDy=0;" edge="1" parent="1" source="S6WGJwwI-2qXbm39gYA7-63" target="S6WGJwwI-2qXbm39gYA7-59">
          <mxGeometry width="160" relative="1" as="geometry">
            <mxPoint x="840" y="1660" as="sourcePoint" />
            <mxPoint x="1000" y="1660" as="targetPoint" />
            <Array as="points">
              <mxPoint x="650" y="1850" />
              <mxPoint x="650" y="1740" />
              <mxPoint x="650" y="1630" />
            </Array>
          </mxGeometry>
        </mxCell>
        <mxCell id="S6WGJwwI-2qXbm39gYA7-66" value="Review freelancers&#39; proposals" style="ellipse;whiteSpace=wrap;html=1;" vertex="1" parent="1">
          <mxGeometry x="500" y="1920" width="120" height="80" as="geometry" />
        </mxCell>
        <mxCell id="S6WGJwwI-2qXbm39gYA7-67" value="Communicate with freelancers" style="ellipse;whiteSpace=wrap;html=1;" vertex="1" parent="1">
          <mxGeometry x="501.22" y="2030" width="120" height="80" as="geometry" />
        </mxCell>
        <mxCell id="S6WGJwwI-2qXbm39gYA7-68" value="Approve Completed Work" style="ellipse;whiteSpace=wrap;html=1;" vertex="1" parent="1">
          <mxGeometry x="501.22" y="2140" width="120" height="80" as="geometry" />
        </mxCell>
        <mxCell id="S6WGJwwI-2qXbm39gYA7-69" value="Make Payment" style="ellipse;whiteSpace=wrap;html=1;" vertex="1" parent="1">
          <mxGeometry x="501.22" y="2250" width="120" height="80" as="geometry" />
        </mxCell>
        <mxCell id="S6WGJwwI-2qXbm39gYA7-70" value="Leave Feedback/Rating" style="ellipse;whiteSpace=wrap;html=1;" vertex="1" parent="1">
          <mxGeometry x="501.22" y="2360" width="120" height="80" as="geometry" />
        </mxCell>
        <mxCell id="S6WGJwwI-2qXbm39gYA7-71" value="View Freelancer&#39;s Rating" style="ellipse;whiteSpace=wrap;html=1;" vertex="1" parent="1">
          <mxGeometry x="501.22" y="2470" width="120" height="80" as="geometry" />
        </mxCell>
        <mxCell id="S6WGJwwI-2qXbm39gYA7-72" value="Manage Users" style="ellipse;whiteSpace=wrap;html=1;" vertex="1" parent="1">
          <mxGeometry x="501.22" y="2580" width="120" height="80" as="geometry" />
        </mxCell>
        <mxCell id="S6WGJwwI-2qXbm39gYA7-73" value="Manage Projects" style="ellipse;whiteSpace=wrap;html=1;" vertex="1" parent="1">
          <mxGeometry x="501.22" y="2690" width="120" height="80" as="geometry" />
        </mxCell>
        <mxCell id="S6WGJwwI-2qXbm39gYA7-74" value="Generate Reports" style="ellipse;whiteSpace=wrap;html=1;" vertex="1" parent="1">
          <mxGeometry x="501.22" y="2800" width="120" height="80" as="geometry" />
        </mxCell>
        <mxCell id="S6WGJwwI-2qXbm39gYA7-75" value="Registration" style="ellipse;whiteSpace=wrap;html=1;" vertex="1" parent="1">
          <mxGeometry x="500" y="-10" width="120" height="80" as="geometry" />
        </mxCell>
        <mxCell id="S6WGJwwI-2qXbm39gYA7-76" value="Administrator" style="shape=umlActor;verticalLabelPosition=bottom;verticalAlign=top;html=1;" vertex="1" parent="1">
          <mxGeometry x="80" y="2600" width="120" height="280" as="geometry" />
        </mxCell>
        <mxCell id="S6WGJwwI-2qXbm39gYA7-79" value="" style="endArrow=classic;html=1;rounded=0;exitX=1;exitY=0.3333333333333333;exitDx=0;exitDy=0;exitPerimeter=0;entryX=0;entryY=0.5;entryDx=0;entryDy=0;" edge="1" parent="1" source="S6WGJwwI-2qXbm39gYA7-76" target="S6WGJwwI-2qXbm39gYA7-72">
          <mxGeometry width="50" height="50" relative="1" as="geometry">
            <mxPoint x="270" y="2750" as="sourcePoint" />
            <mxPoint x="320" y="2700" as="targetPoint" />
          </mxGeometry>
        </mxCell>
        <mxCell id="S6WGJwwI-2qXbm39gYA7-80" value="" style="endArrow=classic;html=1;rounded=0;exitX=1;exitY=0.3333333333333333;exitDx=0;exitDy=0;exitPerimeter=0;entryX=0;entryY=0.5;entryDx=0;entryDy=0;" edge="1" parent="1" source="S6WGJwwI-2qXbm39gYA7-76" target="S6WGJwwI-2qXbm39gYA7-73">
          <mxGeometry width="50" height="50" relative="1" as="geometry">
            <mxPoint x="200" y="2690" as="sourcePoint" />
            <mxPoint x="320" y="2700" as="targetPoint" />
          </mxGeometry>
        </mxCell>
        <mxCell id="S6WGJwwI-2qXbm39gYA7-81" value="" style="endArrow=classic;html=1;rounded=0;entryX=0;entryY=0.5;entryDx=0;entryDy=0;exitX=1;exitY=0.3333333333333333;exitDx=0;exitDy=0;exitPerimeter=0;" edge="1" parent="1" source="S6WGJwwI-2qXbm39gYA7-76" target="S6WGJwwI-2qXbm39gYA7-74">
          <mxGeometry width="50" height="50" relative="1" as="geometry">
            <mxPoint x="200" y="2690" as="sourcePoint" />
            <mxPoint x="280" y="2720" as="targetPoint" />
          </mxGeometry>
        </mxCell>
        <mxCell id="S6WGJwwI-2qXbm39gYA7-84" value="Freelancer" style="shape=umlActor;verticalLabelPosition=bottom;verticalAlign=top;html=1;" vertex="1" parent="1">
          <mxGeometry x="-160" y="430" width="120" height="280" as="geometry" />
        </mxCell>
        <mxCell id="S6WGJwwI-2qXbm39gYA7-87" value="" style="endArrow=classic;html=1;rounded=0;exitX=1;exitY=0.3333333333333333;exitDx=0;exitDy=0;exitPerimeter=0;entryX=0;entryY=0.5;entryDx=0;entryDy=0;" edge="1" parent="1" source="S6WGJwwI-2qXbm39gYA7-84" target="S6WGJwwI-2qXbm39gYA7-75">
          <mxGeometry width="50" height="50" relative="1" as="geometry">
            <mxPoint x="410" y="300" as="sourcePoint" />
            <mxPoint x="460" y="250" as="targetPoint" />
          </mxGeometry>
        </mxCell>
        <mxCell id="S6WGJwwI-2qXbm39gYA7-88" value="" style="endArrow=classic;html=1;rounded=0;exitX=1;exitY=0.3333333333333333;exitDx=0;exitDy=0;exitPerimeter=0;entryX=0;entryY=0.5;entryDx=0;entryDy=0;" edge="1" parent="1" source="S6WGJwwI-2qXbm39gYA7-84" target="S6WGJwwI-2qXbm39gYA7-2">
          <mxGeometry width="50" height="50" relative="1" as="geometry">
            <mxPoint x="190" y="430" as="sourcePoint" />
            <mxPoint x="240" y="380" as="targetPoint" />
          </mxGeometry>
        </mxCell>
        <mxCell id="S6WGJwwI-2qXbm39gYA7-89" value="" style="endArrow=classic;html=1;rounded=0;exitX=1;exitY=0.3333333333333333;exitDx=0;exitDy=0;exitPerimeter=0;entryX=0;entryY=1;entryDx=0;entryDy=0;" edge="1" parent="1" source="S6WGJwwI-2qXbm39gYA7-84" target="S6WGJwwI-2qXbm39gYA7-11">
          <mxGeometry width="50" height="50" relative="1" as="geometry">
            <mxPoint x="190" y="560" as="sourcePoint" />
            <mxPoint x="500" y="230" as="targetPoint" />
          </mxGeometry>
        </mxCell>
        <mxCell id="S6WGJwwI-2qXbm39gYA7-90" value="" style="endArrow=classic;html=1;rounded=0;exitX=1;exitY=0.3333333333333333;exitDx=0;exitDy=0;exitPerimeter=0;entryX=0;entryY=0;entryDx=0;entryDy=0;" edge="1" parent="1" source="S6WGJwwI-2qXbm39gYA7-84" target="S6WGJwwI-2qXbm39gYA7-21">
          <mxGeometry width="50" height="50" relative="1" as="geometry">
            <mxPoint x="270" y="560" as="sourcePoint" />
            <mxPoint x="320" y="510" as="targetPoint" />
          </mxGeometry>
        </mxCell>
        <mxCell id="S6WGJwwI-2qXbm39gYA7-91" value="" style="endArrow=classic;html=1;rounded=0;exitX=1;exitY=0.3333333333333333;exitDx=0;exitDy=0;exitPerimeter=0;entryX=0;entryY=1;entryDx=0;entryDy=0;" edge="1" parent="1" source="S6WGJwwI-2qXbm39gYA7-84" target="S6WGJwwI-2qXbm39gYA7-22">
          <mxGeometry width="50" height="50" relative="1" as="geometry">
            <mxPoint x="270" y="630" as="sourcePoint" />
            <mxPoint x="320" y="580" as="targetPoint" />
          </mxGeometry>
        </mxCell>
        <mxCell id="S6WGJwwI-2qXbm39gYA7-92" value="" style="endArrow=classic;html=1;rounded=0;exitX=0.5;exitY=0.5;exitDx=0;exitDy=0;exitPerimeter=0;entryX=0;entryY=0.5;entryDx=0;entryDy=0;" edge="1" parent="1" source="S6WGJwwI-2qXbm39gYA7-84" target="S6WGJwwI-2qXbm39gYA7-25">
          <mxGeometry width="50" height="50" relative="1" as="geometry">
            <mxPoint x="290" y="780" as="sourcePoint" />
            <mxPoint x="340" y="730" as="targetPoint" />
          </mxGeometry>
        </mxCell>
        <mxCell id="S6WGJwwI-2qXbm39gYA7-93" value="" style="endArrow=classic;html=1;rounded=0;exitX=0.5;exitY=0.5;exitDx=0;exitDy=0;exitPerimeter=0;entryX=0;entryY=0.5;entryDx=0;entryDy=0;" edge="1" parent="1" source="S6WGJwwI-2qXbm39gYA7-84" target="S6WGJwwI-2qXbm39gYA7-27">
          <mxGeometry width="50" height="50" relative="1" as="geometry">
            <mxPoint x="400" y="890" as="sourcePoint" />
            <mxPoint x="450" y="840" as="targetPoint" />
          </mxGeometry>
        </mxCell>
        <mxCell id="S6WGJwwI-2qXbm39gYA7-94" value="" style="endArrow=classic;html=1;rounded=0;exitX=0.5;exitY=0.5;exitDx=0;exitDy=0;exitPerimeter=0;entryX=0;entryY=0.5;entryDx=0;entryDy=0;" edge="1" parent="1" source="S6WGJwwI-2qXbm39gYA7-84" target="S6WGJwwI-2qXbm39gYA7-29">
          <mxGeometry width="50" height="50" relative="1" as="geometry">
            <mxPoint x="370" y="730" as="sourcePoint" />
            <mxPoint x="420" y="680" as="targetPoint" />
          </mxGeometry>
        </mxCell>
        <mxCell id="S6WGJwwI-2qXbm39gYA7-95" value="" style="endArrow=classic;html=1;rounded=0;exitX=0.5;exitY=0.5;exitDx=0;exitDy=0;exitPerimeter=0;entryX=0;entryY=0.5;entryDx=0;entryDy=0;" edge="1" parent="1" source="S6WGJwwI-2qXbm39gYA7-84" target="S6WGJwwI-2qXbm39gYA7-49">
          <mxGeometry width="50" height="50" relative="1" as="geometry">
            <mxPoint x="370" y="870" as="sourcePoint" />
            <mxPoint x="420" y="820" as="targetPoint" />
          </mxGeometry>
        </mxCell>
        <mxCell id="S6WGJwwI-2qXbm39gYA7-96" value="" style="endArrow=classic;html=1;rounded=0;exitX=1;exitY=1;exitDx=0;exitDy=0;exitPerimeter=0;entryX=0;entryY=0.5;entryDx=0;entryDy=0;" edge="1" parent="1" source="S6WGJwwI-2qXbm39gYA7-84" target="S6WGJwwI-2qXbm39gYA7-50">
          <mxGeometry width="50" height="50" relative="1" as="geometry">
            <mxPoint x="370" y="1120" as="sourcePoint" />
            <mxPoint x="420" y="1070" as="targetPoint" />
          </mxGeometry>
        </mxCell>
        <mxCell id="S6WGJwwI-2qXbm39gYA7-97" value="" style="endArrow=classic;html=1;rounded=0;exitX=1;exitY=1;exitDx=0;exitDy=0;exitPerimeter=0;entryX=0;entryY=0.5;entryDx=0;entryDy=0;" edge="1" parent="1" source="S6WGJwwI-2qXbm39gYA7-84" target="S6WGJwwI-2qXbm39gYA7-51">
          <mxGeometry width="50" height="50" relative="1" as="geometry">
            <mxPoint x="320" y="900" as="sourcePoint" />
            <mxPoint x="370" y="850" as="targetPoint" />
          </mxGeometry>
        </mxCell>
        <mxCell id="S6WGJwwI-2qXbm39gYA7-98" value="" style="endArrow=classic;html=1;rounded=0;exitX=1;exitY=1;exitDx=0;exitDy=0;exitPerimeter=0;entryX=0;entryY=0.5;entryDx=0;entryDy=0;" edge="1" parent="1" source="S6WGJwwI-2qXbm39gYA7-84" target="S6WGJwwI-2qXbm39gYA7-52">
          <mxGeometry width="50" height="50" relative="1" as="geometry">
            <mxPoint x="320" y="900" as="sourcePoint" />
            <mxPoint x="370" y="850" as="targetPoint" />
          </mxGeometry>
        </mxCell>
        <mxCell id="S6WGJwwI-2qXbm39gYA7-99" value="" style="endArrow=classic;html=1;rounded=0;exitX=1;exitY=1;exitDx=0;exitDy=0;exitPerimeter=0;entryX=0;entryY=0;entryDx=0;entryDy=0;" edge="1" parent="1" source="S6WGJwwI-2qXbm39gYA7-84" target="S6WGJwwI-2qXbm39gYA7-53">
          <mxGeometry width="50" height="50" relative="1" as="geometry">
            <mxPoint x="320" y="1060" as="sourcePoint" />
            <mxPoint x="370" y="1010" as="targetPoint" />
          </mxGeometry>
        </mxCell>
        <mxCell id="S6WGJwwI-2qXbm39gYA7-100" value="Freelancer" style="shape=umlActor;verticalLabelPosition=bottom;verticalAlign=top;html=1;" vertex="1" parent="1">
          <mxGeometry x="1163" y="1760" width="120" height="280" as="geometry" />
        </mxCell>
        <mxCell id="S6WGJwwI-2qXbm39gYA7-101" value="" style="endArrow=classic;html=1;rounded=0;entryX=1;entryY=0.5;entryDx=0;entryDy=0;exitX=0;exitY=0.3333333333333333;exitDx=0;exitDy=0;exitPerimeter=0;" edge="1" parent="1" source="S6WGJwwI-2qXbm39gYA7-100" target="S6WGJwwI-2qXbm39gYA7-56">
          <mxGeometry width="50" height="50" relative="1" as="geometry">
            <mxPoint x="910" y="1660" as="sourcePoint" />
            <mxPoint x="960" y="1610" as="targetPoint" />
          </mxGeometry>
        </mxCell>
        <mxCell id="S6WGJwwI-2qXbm39gYA7-102" value="" style="endArrow=classic;html=1;rounded=0;entryX=1;entryY=0.5;entryDx=0;entryDy=0;exitX=0;exitY=0.3333333333333333;exitDx=0;exitDy=0;exitPerimeter=0;" edge="1" parent="1" source="S6WGJwwI-2qXbm39gYA7-100" target="S6WGJwwI-2qXbm39gYA7-57">
          <mxGeometry width="50" height="50" relative="1" as="geometry">
            <mxPoint x="910" y="1780" as="sourcePoint" />
            <mxPoint x="960" y="1730" as="targetPoint" />
          </mxGeometry>
        </mxCell>
        <mxCell id="S6WGJwwI-2qXbm39gYA7-103" value="" style="endArrow=classic;html=1;rounded=0;exitX=0;exitY=0.3333333333333333;exitDx=0;exitDy=0;exitPerimeter=0;entryX=1;entryY=1;entryDx=0;entryDy=0;" edge="1" parent="1" source="S6WGJwwI-2qXbm39gYA7-100" target="S6WGJwwI-2qXbm39gYA7-59">
          <mxGeometry width="50" height="50" relative="1" as="geometry">
            <mxPoint x="910" y="1780" as="sourcePoint" />
            <mxPoint x="960" y="1730" as="targetPoint" />
          </mxGeometry>
        </mxCell>
        <mxCell id="S6WGJwwI-2qXbm39gYA7-104" value="" style="endArrow=classic;html=1;rounded=0;entryX=1;entryY=1;entryDx=0;entryDy=0;exitX=0.5;exitY=0.5;exitDx=0;exitDy=0;exitPerimeter=0;" edge="1" parent="1" source="S6WGJwwI-2qXbm39gYA7-100" target="S6WGJwwI-2qXbm39gYA7-60">
          <mxGeometry width="50" height="50" relative="1" as="geometry">
            <mxPoint x="910" y="2040" as="sourcePoint" />
            <mxPoint x="960" y="1990" as="targetPoint" />
          </mxGeometry>
        </mxCell>
        <mxCell id="S6WGJwwI-2qXbm39gYA7-105" value="" style="endArrow=classic;html=1;rounded=0;entryX=1;entryY=0;entryDx=0;entryDy=0;exitX=0.5;exitY=0.5;exitDx=0;exitDy=0;exitPerimeter=0;" edge="1" parent="1" source="S6WGJwwI-2qXbm39gYA7-100" target="S6WGJwwI-2qXbm39gYA7-63">
          <mxGeometry width="50" height="50" relative="1" as="geometry">
            <mxPoint x="910" y="2040" as="sourcePoint" />
            <mxPoint x="960" y="1990" as="targetPoint" />
          </mxGeometry>
        </mxCell>
        <mxCell id="S6WGJwwI-2qXbm39gYA7-106" value="" style="endArrow=classic;html=1;rounded=0;entryX=1;entryY=0.5;entryDx=0;entryDy=0;exitX=0.5;exitY=0.5;exitDx=0;exitDy=0;exitPerimeter=0;" edge="1" parent="1" source="S6WGJwwI-2qXbm39gYA7-100" target="S6WGJwwI-2qXbm39gYA7-66">
          <mxGeometry width="50" height="50" relative="1" as="geometry">
            <mxPoint x="910" y="2040" as="sourcePoint" />
            <mxPoint x="960" y="1990" as="targetPoint" />
          </mxGeometry>
        </mxCell>
        <mxCell id="S6WGJwwI-2qXbm39gYA7-107" value="" style="endArrow=classic;html=1;rounded=0;entryX=1;entryY=0.5;entryDx=0;entryDy=0;exitX=0.5;exitY=0.5;exitDx=0;exitDy=0;exitPerimeter=0;" edge="1" parent="1" source="S6WGJwwI-2qXbm39gYA7-100" target="S6WGJwwI-2qXbm39gYA7-67">
          <mxGeometry width="50" height="50" relative="1" as="geometry">
            <mxPoint x="910" y="2040" as="sourcePoint" />
            <mxPoint x="960" y="1990" as="targetPoint" />
          </mxGeometry>
        </mxCell>
        <mxCell id="S6WGJwwI-2qXbm39gYA7-108" value="" style="endArrow=classic;html=1;rounded=0;entryX=1;entryY=0.5;entryDx=0;entryDy=0;exitX=0;exitY=1;exitDx=0;exitDy=0;exitPerimeter=0;" edge="1" parent="1" source="S6WGJwwI-2qXbm39gYA7-100" target="S6WGJwwI-2qXbm39gYA7-68">
          <mxGeometry width="50" height="50" relative="1" as="geometry">
            <mxPoint x="910" y="2290" as="sourcePoint" />
            <mxPoint x="960" y="2240" as="targetPoint" />
          </mxGeometry>
        </mxCell>
        <mxCell id="S6WGJwwI-2qXbm39gYA7-109" value="" style="endArrow=classic;html=1;rounded=0;entryX=1;entryY=0.5;entryDx=0;entryDy=0;exitX=0;exitY=1;exitDx=0;exitDy=0;exitPerimeter=0;" edge="1" parent="1" source="S6WGJwwI-2qXbm39gYA7-100" target="S6WGJwwI-2qXbm39gYA7-69">
          <mxGeometry width="50" height="50" relative="1" as="geometry">
            <mxPoint x="910" y="2290" as="sourcePoint" />
            <mxPoint x="960" y="2240" as="targetPoint" />
          </mxGeometry>
        </mxCell>
        <mxCell id="S6WGJwwI-2qXbm39gYA7-110" value="" style="endArrow=classic;html=1;rounded=0;entryX=1;entryY=0.5;entryDx=0;entryDy=0;exitX=0;exitY=1;exitDx=0;exitDy=0;exitPerimeter=0;" edge="1" parent="1" source="S6WGJwwI-2qXbm39gYA7-100" target="S6WGJwwI-2qXbm39gYA7-70">
          <mxGeometry width="50" height="50" relative="1" as="geometry">
            <mxPoint x="910" y="2290" as="sourcePoint" />
            <mxPoint x="960" y="2240" as="targetPoint" />
          </mxGeometry>
        </mxCell>
        <mxCell id="S6WGJwwI-2qXbm39gYA7-111" value="" style="endArrow=classic;html=1;rounded=0;entryX=1;entryY=0.5;entryDx=0;entryDy=0;exitX=0;exitY=1;exitDx=0;exitDy=0;exitPerimeter=0;" edge="1" parent="1" source="S6WGJwwI-2qXbm39gYA7-100" target="S6WGJwwI-2qXbm39gYA7-71">
          <mxGeometry width="50" height="50" relative="1" as="geometry">
            <mxPoint x="910" y="2290" as="sourcePoint" />
            <mxPoint x="960" y="2240" as="targetPoint" />
          </mxGeometry>
        </mxCell>
      </root>
    </mxGraphModel>
  </diagram>
</mxfile>
